<!--
SPDX-FileCopyrightText: 2026 Andrii L <lebeden@gmail.com>
SPDX-License-Identifier: GPL-3.0-or-later
-->
<svg xmlns="http://www.w3.org/2000/svg" width="170" height="170" viewBox="0 0 170 170"><title>HoloNight Files</title><defs><linearGradient id="e" x1="40" x2="128" y1="38" y2="121" gradientUnits="userSpaceOnUse"><stop stop-color="#39e5f5"/><stop offset=".28" stop-color="#269cff"/><stop offset=".65" stop-color="#2855d7"/><stop offset="1" stop-color="#8050ff"/></linearGradient><linearGradient id="f" x1="55" x2="120" y1="37" y2="138" gradientUnits="userSpaceOnUse"><stop stop-color="#b2fbff"/><stop offset=".35" stop-color="#54c9ff"/><stop offset=".7" stop-color="#397ff0"/><stop offset="1" stop-color="#a37aff"/></linearGradient><linearGradient id="a" x1="40" x2="128" y1="42" y2="134" gradientUnits="userSpaceOnUse"><stop stop-color="#55e7ff"/><stop offset=".5" stop-color="#287dea"/><stop offset="1" stop-color="#8656fa"/></linearGradient><linearGradient id="d" x1="0" x2=".25" y1="0" y2="1"><stop stop-color="#c6ffff" stop-opacity=".5"/><stop offset=".18" stop-color="#96ddff" stop-opacity=".22"/><stop offset=".6" stop-color="#2766f2" stop-opacity="0"/></linearGradient><radialGradient id="b" cx=".6" cy=".87" r=".8"><stop stop-color="#09194d" stop-opacity=".47"/><stop offset=".5" stop-color="#18285e" stop-opacity=".18"/><stop offset="1" stop-color="#20409f" stop-opacity="0"/></radialGradient><radialGradient id="c" cx=".95" cy=".85" r=".65"><stop stop-color="#9465ff" stop-opacity=".55"/><stop offset="1" stop-color="#5845ff" stop-opacity="0"/></radialGradient></defs><path fill="url(#a)" d="M31 55q0-9 10-9h88q8 0 8 10v57H31Z"/><path fill="url(#b)" d="M31 55q0-9 10-9h88q8 0 8 10v57H31Z"/><path fill="url(#c)" d="M31 55q0-9 10-9h88q8 0 8 10v57H31Z"/><path fill="url(#d)" d="M31 55q0-9 10-9h88q8 0 8 10v57H31Z"/><path fill="url(#e)" stroke="url(#f)" stroke-linejoin="round" stroke-width="1.5" d="M24 51q0-14 14-14h23q7 0 10 7l6 14q2 3 8 3h49q13 0 13 13v48q0 14-15 14H40q-16 0-16-15Z"/><path fill="url(#b)" d="M24 51q0-14 14-14h23q7 0 10 7l6 14q2 3 8 3h49q13 0 13 13v48q0 14-15 14H40q-16 0-16-15Z"/><path fill="url(#c)" d="M24 51q0-14 14-14h23q7 0 10 7l6 14q2 3 8 3h49q13 0 13 13v48q0 14-15 14H40q-16 0-16-15Z"/><path fill="url(#d)" d="M24 51q0-14 14-14h23q7 0 10 7l6 14q2 3 8 3h49q13 0 13 13v48q0 14-15 14H40q-16 0-16-15Z"/><path fill="none" stroke="#c1f8ff" stroke-opacity=".55" stroke-width="1.7" d="M39 39h22q5 0 8 6l6 13q3 5 10 5h49q9 0 11 7"/></svg>